<svg height="512" viewBox="0 0 512 512" width="512" xmlns="http://www.w3.org/2000/svg"><g id="flat"><path d="m340.866 364.225a8 8 0 0 1 -2.47-15.611l15.216-4.944a8 8 0 0 1 4.945 15.217l-15.217 4.944a7.991 7.991 0 0 1 -2.474.394z" fill="#fd9226"/><path d="m155 392h197a147.088 147.088 0 0 0 1.373-112.568l-9.373-23.432h80a182.853 182.853 0 0 1 33.152 124.477l-1.152 11.523h32v96h-349z" fill="#a6deff"/><path d="m388.05 371.74-4.05 20.26h-32a147.111 147.111 0 0 0 1.37-112.57l-9.37-23.43h32a196.183 196.183 0 0 1 12.05 115.74z" fill="#a6deff"/><path d="m112 192 23.447-60.962a118.9 118.9 0 0 1 57.8-63.66l2.271-1.135a118.889 118.889 0 0 1 76.482-10.243l-40 40-24-8v24l-24 16-16-8 6 39-46 49z" fill="#91a666"/><path d="m121.126 210.19 1.194-65.305a118.887 118.887 0 0 0 -29.62-80.719l-1.678-1.906a118.889 118.889 0 0 0 -67.022-38.249l22.026 52.1 25.246 1.611-9.023 22.243 16.223 23.85 17.834-1.4-12.032 29.655 16.01 66.93z" fill="#768753"/><path d="m24 392h184a16 16 0 0 1 16 16 16 16 0 0 1 -16 16h-32a16 16 0 0 0 -16 16 16 16 0 0 0 16 16h8a16 16 0 0 1 16 16 16 16 0 0 1 -16 16h-160z" fill="#c7830b"/><path d="m153.832 248-7.69 19.224a202.439 202.439 0 0 0 -8.435 124.276l.125.5h32l.124-.5a202.432 202.432 0 0 0 -8.435-124.279z" fill="#ee9d0d"/><path d="m169.96 391.5-.13.5h-32l-.12-.5a202.281 202.281 0 0 1 -5.31-66.22l21.43 10.72 21.44-10.72a202.281 202.281 0 0 1 -5.31 66.22z" fill="#932c27"/><g fill="#7a4922"><path d="m120 208-1.621 4.456a338.319 338.319 0 0 0 -15.765 171.23l1.386 8.314h-48l-.312-4.056a338.3 338.3 0 0 1 40.312-187.944z"/><path d="m100.38 368h-45.64q-.135-8.01.1-16h44.02q.57 8.01 1.52 16z"/><path d="m98.11 336h-42.11c-.1 0-.21 0-.31-.01q.615-8.025 1.61-15.99h40.81q-.195 8 0 16z"/><path d="m100.39 288q-.945 7.98-1.52 16h-39.17q1.395-8.04 3.19-16z"/><path d="m105.78 256q-1.74 7.965-3.09 16h-35.8q2.2-8.055 4.84-16z"/><path d="m111.17 234.64q-2.235 7.755-4.08 15.59l-31.83-4.39q2.82-7.725 6.03-15.32z"/></g><path d="m100.38 368h-45.64q-.135-8.01.1-16h44.02q.57 8.01 1.52 16z" fill="#5b3719"/><path d="m98.11 336h-42.11c-.1 0-.21 0-.31-.01q.615-8.025 1.61-15.99h40.81q-.195 8 0 16z" fill="#5b3719"/><path d="m100.39 288q-.945 7.98-1.52 16h-39.17q1.395-8.04 3.19-16z" fill="#5b3719"/><path d="m105.78 256q-1.74 7.965-3.09 16h-35.8q2.2-8.055 4.84-16z" fill="#5b3719"/><circle cx="88" cy="192" fill="#a3612d" r="16"/><path d="m388.05 371.74-4.05 20.26h-32a147.111 147.111 0 0 0 1.37-112.57l-9.37-23.43h32a196.183 196.183 0 0 1 12.05 115.74z" fill="#88c3e6"/><path d="m423.86 333.27a195.876 195.876 0 0 1 -3.81 38.47 25.2 25.2 0 0 1 -24.71 20.26h-11.34l4.05-20.26a196.183 196.183 0 0 0 -12.05-115.74h32a196.109 196.109 0 0 1 15.86 77.27z" fill="#92d1f7"/><path d="m304 248.59a10.281 10.281 0 0 0 7.029 9.753 43.189 43.189 0 0 0 32.971-2.343l7.029 2.343a43.189 43.189 0 0 0 32.971-2.343l7.029 2.343a43.189 43.189 0 0 0 32.971-2.343l-13.872-23.119a34.768 34.768 0 0 0 -29.814-16.881h-43.724a32.59 32.59 0 0 0 -32.59 32.59z" fill="#a6deff"/><path d="m352 432h-96a8 8 0 0 1 0-16h96a8 8 0 0 1 0 16z" fill="#92d1f7"/><path d="m408 432h-24a8 8 0 0 1 0-16h24a8 8 0 0 1 0 16z" fill="#92d1f7"/><path d="m456 464h-112a8 8 0 0 1 0-16h112a8 8 0 0 1 0 16z" fill="#92d1f7"/><path d="m480 432h-40a8 8 0 0 1 0-16h40a8 8 0 0 1 0 16z" fill="#92d1f7"/><g fill="#fd9226"><path d="m280 320a8 8 0 0 1 -8-8v-16a8 8 0 0 1 16 0v16a8 8 0 0 1 -8 8z"/><path d="m242.388 332.224a7.988 7.988 0 0 1 -6.478-3.3l-9.405-12.945a8 8 0 0 1 12.944-9.4l9.405 12.945a8 8 0 0 1 -6.466 12.7z"/><path d="m219.134 364.225a7.987 7.987 0 0 1 -2.474-.394l-15.217-4.944a8 8 0 1 1 4.945-15.217l15.216 4.944a8 8 0 0 1 -2.47 15.611z"/><path d="m317.612 332.224a8 8 0 0 1 -6.466-12.7l9.4-12.945a8 8 0 0 1 12.944 9.4l-9.405 12.945a7.991 7.991 0 0 1 -6.473 3.3z"/><path d="m252.281 392a32 32 0 1 1 55.438 0z"/></g><path d="m312 464h-40a8 8 0 0 1 0-16h40a8 8 0 0 1 0 16z" fill="#92d1f7"/><path d="m111.17 234.64q-2.235 7.755-4.08 15.59l-31.83-4.39q2.82-7.725 6.03-15.32z" fill="#5b3719"/><path d="m410.1 144.1a15.982 15.982 0 0 1 13.9-8.1c.455 0 .9.031 1.348.068a24 24 0 0 1 46.652 7.932c0 .134-.008.266-.01.4a20.006 20.006 0 0 1 16.01 19.6 20 20 0 0 1 -20 20h-56a20 20 0 0 1 -20-20 20 20 0 0 1 18.1-19.9z" fill="#eae9e4"/><path d="m400 100.687a7.98 7.98 0 0 1 -5.657-2.343l-8-8a3.311 3.311 0 0 0 -4.686 0 8 8 0 1 1 -11.314-11.314 19.311 19.311 0 0 1 27.314 0l2.343 2.343 2.343-2.344a19.313 19.313 0 0 1 27.314 0 8 8 0 1 1 -11.314 11.313 3.312 3.312 0 0 0 -4.686 0l-8 8a7.98 7.98 0 0 1 -5.657 2.345z" fill="#cdccc8"/><path d="m352 136a7.976 7.976 0 0 1 -5.657-2.343l-8-8a3.315 3.315 0 0 0 -4.686 0 8 8 0 0 1 -11.314-11.314 19.337 19.337 0 0 1 27.314 0l2.343 2.344 2.343-2.344a19.337 19.337 0 0 1 27.314 0 8 8 0 0 1 -11.314 11.314 3.315 3.315 0 0 0 -4.686 0l-8 8a7.976 7.976 0 0 1 -5.657 2.343z" fill="#cdccc8"/><path d="m64 432h-8a8 8 0 0 1 0-16h8a8 8 0 0 1 0 16z" fill="#936108"/><path d="m120 432h-16a8 8 0 0 1 0-16h16a8 8 0 0 1 0 16z" fill="#936108"/><path d="m88 464h-16a8 8 0 0 1 0-16h16a8 8 0 0 1 0 16z" fill="#936108"/><path d="m128 464h-8a8 8 0 0 1 0-16h8a8 8 0 0 1 0 16z" fill="#936108"/><path d="m288 176-24 8-8-24-16 32-24 8-24-24v32l-32 8-32-8 3.633-5.087a154.248 154.248 0 0 1 97.925-62.105 154.243 154.243 0 0 1 52.952-.39l21.49 3.582z" fill="#768753"/><circle cx="120" cy="208" fill="#a3612d" r="16"/></g></svg>